<svg id="Layer_1" enable-background="new 0 0 509.01 509.01" height="512" viewBox="0 0 509.01 509.01" width="512" xmlns="http://www.w3.org/2000/svg"><path d="m434.817 74.193c-94.917-98.926-265.71-98.922-360.624 0-98.926 94.917-98.922 265.71 0 360.624 94.917 98.926 265.71 98.922 360.624 0 98.926-94.917 98.922-265.71 0-360.624zm-193.456 404.922c-50.177-2.872-97.25-22.151-134.993-55.26l148.137-148.137 32.286 32.286c-20.022 23.173-34.633 50.472-42.545 79.737-8.005 29.608-8.948 60.836-2.885 91.374zm66.701-149.84 94.58 94.58c-36.656 32.156-82.11 51.274-130.664 54.979-12.448-53.452.709-107.765 36.084-149.559zm21.206-21.22c41.725-35.352 96.038-48.519 149.564-36.063-3.708 48.548-22.826 93.998-54.978 130.65zm149.847-66.691c-60.723-12.444-124.556 4.77-171.111 45.427l-32.286-32.286 148.137-148.137c33.11 37.744 52.389 84.818 55.26 134.996zm-299.366-40.402c-41.828 35.61-96.979 48.49-149.572 36.069 3.705-48.554 22.823-94.007 54.978-130.663zm-73.381-115.807c36.656-32.155 82.111-51.274 130.664-54.979 12.462 53.492-.693 107.787-36.079 149.564zm158.336 36.403c8.071-29.688 9.035-61.015 2.945-91.662 50.177 2.872 97.25 22.15 134.993 55.26l-148.137 148.136-32.284-32.284c19.966-23.098 34.555-50.289 42.483-79.45zm-234.808 146.091c60.353 12.477 124.7-4.805 171.112-45.428l32.284 32.284-148.137 148.137c-33.109-37.743-52.388-84.816-55.259-134.993z"/></svg>